<svg width="28" height="28" viewBox="0 0 28 28" fill="none" xmlns="http://www.w3.org/2000/svg">
<g clip-path="url(#clip0_212_2303)">
<path fill-rule="evenodd" clip-rule="evenodd" d="M10.5 1.75H21V14C21 14.1548 20.959 14.3069 20.8811 14.4406C20.8031 14.5744 20.6911 14.6851 20.5564 14.7614C20.4217 14.8378 20.2692 14.877 20.1144 14.8751C19.9596 14.8732 19.8081 14.8303 19.6753 14.7507L15.75 12.3953L11.8248 14.7525C11.6918 14.8322 11.5401 14.8751 11.3852 14.8769C11.2302 14.8787 11.0776 14.8393 10.9428 14.7628C10.8081 14.6862 10.6961 14.5753 10.6183 14.4413C10.5405 14.3072 10.4997 14.155 10.5 14V1.75Z" fill="#6B6B6B"/>
<path d="M5.25 0H22.75C23.6783 0 24.5685 0.368749 25.2249 1.02513C25.8813 1.6815 26.25 2.57174 26.25 3.5V24.5C26.25 25.4283 25.8813 26.3185 25.2249 26.9749C24.5685 27.6313 23.6783 28 22.75 28H5.25C4.32174 28 3.4315 27.6313 2.77513 26.9749C2.11875 26.3185 1.75 25.4283 1.75 24.5V22.75H3.5V24.5C3.5 24.9641 3.68437 25.4092 4.01256 25.7374C4.34075 26.0656 4.78587 26.25 5.25 26.25H22.75C23.2141 26.25 23.6592 26.0656 23.9874 25.7374C24.3156 25.4092 24.5 24.9641 24.5 24.5V3.5C24.5 3.03587 24.3156 2.59075 23.9874 2.26256C23.6592 1.93437 23.2141 1.75 22.75 1.75H5.25C4.78587 1.75 4.34075 1.93437 4.01256 2.26256C3.68437 2.59075 3.5 3.03587 3.5 3.5V5.25H1.75V3.5C1.75 2.57174 2.11875 1.6815 2.77513 1.02513C3.4315 0.368749 4.32174 0 5.25 0Z" fill="#6B6B6B"/>
<path d="M1.75 8.75V7.875C1.75 7.64294 1.84219 7.42038 2.00628 7.25628C2.17038 7.09219 2.39294 7 2.625 7C2.85706 7 3.07962 7.09219 3.24372 7.25628C3.40781 7.42038 3.5 7.64294 3.5 7.875V8.75H4.375C4.60706 8.75 4.82962 8.84219 4.99372 9.00628C5.15781 9.17038 5.25 9.39294 5.25 9.625C5.25 9.85706 5.15781 10.0796 4.99372 10.2437C4.82962 10.4078 4.60706 10.5 4.375 10.5H0.875C0.642936 10.5 0.420376 10.4078 0.256282 10.2437C0.0921872 10.0796 0 9.85706 0 9.625C0 9.39294 0.0921872 9.17038 0.256282 9.00628C0.420376 8.84219 0.642936 8.75 0.875 8.75H1.75ZM1.75 14V13.125C1.75 12.8929 1.84219 12.6704 2.00628 12.5063C2.17038 12.3422 2.39294 12.25 2.625 12.25C2.85706 12.25 3.07962 12.3422 3.24372 12.5063C3.40781 12.6704 3.5 12.8929 3.5 13.125V14H4.375C4.60706 14 4.82962 14.0922 4.99372 14.2563C5.15781 14.4204 5.25 14.6429 5.25 14.875C5.25 15.1071 5.15781 15.3296 4.99372 15.4937C4.82962 15.6578 4.60706 15.75 4.375 15.75H0.875C0.642936 15.75 0.420376 15.6578 0.256282 15.4937C0.0921872 15.3296 0 15.1071 0 14.875C0 14.6429 0.0921872 14.4204 0.256282 14.2563C0.420376 14.0922 0.642936 14 0.875 14H1.75ZM1.75 19.25V18.375C1.75 18.1429 1.84219 17.9204 2.00628 17.7563C2.17038 17.5922 2.39294 17.5 2.625 17.5C2.85706 17.5 3.07962 17.5922 3.24372 17.7563C3.40781 17.9204 3.5 18.1429 3.5 18.375V19.25H4.375C4.60706 19.25 4.82962 19.3422 4.99372 19.5063C5.15781 19.6704 5.25 19.8929 5.25 20.125C5.25 20.3571 5.15781 20.5796 4.99372 20.7437C4.82962 20.9078 4.60706 21 4.375 21H0.875C0.642936 21 0.420376 20.9078 0.256282 20.7437C0.0921872 20.5796 0 20.3571 0 20.125C0 19.8929 0.0921872 19.6704 0.256282 19.5063C0.420376 19.3422 0.642936 19.25 0.875 19.25H1.75Z" fill="#6B6B6B"/>
</g>
<defs>
<clipPath id="clip0_212_2303">
<rect width="28" height="28" fill="white"/>
</clipPath>
</defs>
</svg>
