<svg width="28" height="28" viewBox="0 0 28 28" fill="none" xmlns="http://www.w3.org/2000/svg">
<g clip-path="url(#clip0_212_2307)">
<path d="M25.375 5.25C25.6071 5.25 25.8296 5.34219 25.9937 5.50628C26.1578 5.67038 26.25 5.89294 26.25 6.125V21.875C26.25 22.1071 26.1578 22.3296 25.9937 22.4937C25.8296 22.6578 25.6071 22.75 25.375 22.75H2.625C2.39294 22.75 2.17038 22.6578 2.00628 22.4937C1.84219 22.3296 1.75 22.1071 1.75 21.875V6.125C1.75 5.89294 1.84219 5.67038 2.00628 5.50628C2.17038 5.34219 2.39294 5.25 2.625 5.25H25.375ZM2.625 3.5C1.92881 3.5 1.26113 3.77656 0.768845 4.26884C0.276562 4.76113 0 5.42881 0 6.125L0 21.875C0 22.5712 0.276562 23.2389 0.768845 23.7312C1.26113 24.2234 1.92881 24.5 2.625 24.5H25.375C26.0712 24.5 26.7389 24.2234 27.2312 23.7312C27.7234 23.2389 28 22.5712 28 21.875V6.125C28 5.42881 27.7234 4.76113 27.2312 4.26884C26.7389 3.77656 26.0712 3.5 25.375 3.5H2.625Z" fill="#6B6B6B"/>
<path d="M8.75 14C8.75 13.7679 8.84219 13.5454 9.00628 13.3813C9.17038 13.2172 9.39294 13.125 9.625 13.125H21.875C22.1071 13.125 22.3296 13.2172 22.4937 13.3813C22.6578 13.5454 22.75 13.7679 22.75 14C22.75 14.2321 22.6578 14.4546 22.4937 14.6187C22.3296 14.7828 22.1071 14.875 21.875 14.875H9.625C9.39294 14.875 9.17038 14.7828 9.00628 14.6187C8.84219 14.4546 8.75 14.2321 8.75 14ZM8.75 9.625C8.75 9.39294 8.84219 9.17038 9.00628 9.00628C9.17038 8.84219 9.39294 8.75 9.625 8.75H21.875C22.1071 8.75 22.3296 8.84219 22.4937 9.00628C22.6578 9.17038 22.75 9.39294 22.75 9.625C22.75 9.85706 22.6578 10.0796 22.4937 10.2437C22.3296 10.4078 22.1071 10.5 21.875 10.5H9.625C9.39294 10.5 9.17038 10.4078 9.00628 10.2437C8.84219 10.0796 8.75 9.85706 8.75 9.625ZM8.75 18.375C8.75 18.1429 8.84219 17.9204 9.00628 17.7563C9.17038 17.5922 9.39294 17.5 9.625 17.5H21.875C22.1071 17.5 22.3296 17.5922 22.4937 17.7563C22.6578 17.9204 22.75 18.1429 22.75 18.375C22.75 18.6071 22.6578 18.8296 22.4937 18.9937C22.3296 19.1578 22.1071 19.25 21.875 19.25H9.625C9.39294 19.25 9.17038 19.1578 9.00628 18.9937C8.84219 18.8296 8.75 18.6071 8.75 18.375ZM7 9.625C7 9.85706 6.90781 10.0796 6.74372 10.2437C6.57962 10.4078 6.35706 10.5 6.125 10.5C5.89294 10.5 5.67038 10.4078 5.50628 10.2437C5.34219 10.0796 5.25 9.85706 5.25 9.625C5.25 9.39294 5.34219 9.17038 5.50628 9.00628C5.67038 8.84219 5.89294 8.75 6.125 8.75C6.35706 8.75 6.57962 8.84219 6.74372 9.00628C6.90781 9.17038 7 9.39294 7 9.625ZM7 14C7 14.2321 6.90781 14.4546 6.74372 14.6187C6.57962 14.7828 6.35706 14.875 6.125 14.875C5.89294 14.875 5.67038 14.7828 5.50628 14.6187C5.34219 14.4546 5.25 14.2321 5.25 14C5.25 13.7679 5.34219 13.5454 5.50628 13.3813C5.67038 13.2172 5.89294 13.125 6.125 13.125C6.35706 13.125 6.57962 13.2172 6.74372 13.3813C6.90781 13.5454 7 13.7679 7 14ZM7 18.375C7 18.6071 6.90781 18.8296 6.74372 18.9937C6.57962 19.1578 6.35706 19.25 6.125 19.25C5.89294 19.25 5.67038 19.1578 5.50628 18.9937C5.34219 18.8296 5.25 18.6071 5.25 18.375C5.25 18.1429 5.34219 17.9204 5.50628 17.7563C5.67038 17.5922 5.89294 17.5 6.125 17.5C6.35706 17.5 6.57962 17.5922 6.74372 17.7563C6.90781 17.9204 7 18.1429 7 18.375Z" fill="#6B6B6B"/>
</g>
<defs>
<clipPath id="clip0_212_2307">
<rect width="28" height="28" fill="white"/>
</clipPath>
</defs>
</svg>
