<svg width="28" height="28" viewBox="0 0 28 28" fill="none" xmlns="http://www.w3.org/2000/svg">
<path d="M15.2374 2.62468C14.9092 2.29661 14.4642 2.1123 14.0001 2.1123C13.5361 2.1123 13.0911 2.29661 12.7629 2.62468L1.13063 14.2552C1.04927 14.3365 0.984741 14.4331 0.940713 14.5394C0.896685 14.6457 0.874023 14.7596 0.874023 14.8747C0.874023 14.9897 0.896685 15.1037 0.940713 15.21C0.984741 15.3162 1.04927 15.4128 1.13063 15.4942C1.29493 15.6585 1.51777 15.7508 1.75013 15.7508C1.86518 15.7508 1.97911 15.7281 2.0854 15.6841C2.19169 15.6401 2.28827 15.5755 2.36963 15.4942L14.0001 3.86193L25.6306 15.4942C25.7949 15.6585 26.0178 15.7508 26.2501 15.7508C26.4825 15.7508 26.7053 15.6585 26.8696 15.4942C27.0339 15.3299 27.1262 15.107 27.1262 14.8747C27.1262 14.6423 27.0339 14.4195 26.8696 14.2552L22.7501 10.1374V4.37468C22.7501 4.14262 22.6579 3.92006 22.4938 3.75596C22.3298 3.59187 22.1072 3.49968 21.8751 3.49968H20.1251C19.8931 3.49968 19.6705 3.59187 19.5064 3.75596C19.3423 3.92006 19.2501 4.14262 19.2501 4.37468V6.63743L15.2374 2.62468Z" fill="#6B6B6B"/>
<path d="M14 5.90625L24.5 16.4062V23.7685C24.5 24.4647 24.2234 25.1324 23.7312 25.6247C23.2389 26.1169 22.5712 26.3935 21.875 26.3935H6.125C5.42881 26.3935 4.76113 26.1169 4.26884 25.6247C3.77656 25.1324 3.5 24.4647 3.5 23.7685V16.4062L14 5.90625Z" fill="#6B6B6B"/>
</svg>
